HIERARCHY
ROOT Root
{
	OFFSET 0.00000 0.00000 0.00000
	CHANNELS 6 Xposition Yposition Zposition Zrotation Xrotation Yrotation
	JOINT Hip
	{
		OFFSET 0 0 0	
		CHANNELS 3 Zrotation Xrotation Yrotation
		JOINT Tummy
		{
			OFFSET 0 0.04 0	
			CHANNELS 3 Zrotation Xrotation Yrotation
			JOINT ChestBottom
			{
				OFFSET 0 0.194 0	
				CHANNELS 3 Zrotation Xrotation Yrotation
				JOINT ChestTop
				{
					OFFSET 0 0.166 0	
					CHANNELS 3 Zrotation Xrotation Yrotation
					JOINT LeftCollar
					{
						OFFSET 0 0.1 0	
						CHANNELS 3 Zrotation Xrotation Yrotation
						JOINT LeftUpperArm
						{
							OFFSET 0.156 -0.02 0.03	
							CHANNELS 3 Zrotation Xrotation Yrotation
							JOINT LeftForeArm
							{
								OFFSET 0.035 -0.27 -0.01	
								CHANNELS 3 Zrotation Xrotation Yrotation
								JOINT LeftHand
								{
									OFFSET 0.01 -0.27 0.01	
									CHANNELS 3 Zrotation Xrotation Yrotation
									End Site
									{
										OFFSET 0 -0.15 0
									}
								}
							}
						}
					}
					JOINT RightCollar
					{
						OFFSET 0 0.1 0	
						CHANNELS 3 Zrotation Xrotation Yrotation
						JOINT RightUpperArm
						{
							OFFSET -0.156 -0.02 0.03	
							CHANNELS 3 Zrotation Xrotation Yrotation
							JOINT RightForeArm
							{
								OFFSET -0.035 -0.27 -0.01	
								CHANNELS 3 Zrotation Xrotation Yrotation
								JOINT RightHand
								{
									OFFSET -0.01 -0.27 0.01	
									CHANNELS 3 Zrotation Xrotation Yrotation
									End Site
									{
										OFFSET 0 -0.15 0
									}
								}
							}
						}
					}
					JOINT Neck
					{
						OFFSET 0 0.1 0	
						CHANNELS 3 Zrotation Xrotation Yrotation
						JOINT Head
						{
							OFFSET 0 0.127 0.03	
							CHANNELS 3 Zrotation Xrotation Yrotation
							End Site
							{
								OFFSET 0 0.127 0.03
							}
						}
					}
				}
			}
		}
	}
	JOINT LeftHip
	{
		OFFSET 0 0 0	
		CHANNELS 3 Zrotation Xrotation Yrotation
		JOINT LeftThigh
		{
			OFFSET 0.088 -0.06 0	
			CHANNELS 3 Zrotation Xrotation Yrotation
			JOINT LeftLowerLeg
			{
				OFFSET 0 -0.39 0.02	
				CHANNELS 3 Zrotation Xrotation Yrotation
				JOINT LeftFootTop
				{
					OFFSET 0 -0.43 -0.02	
					CHANNELS 3 Zrotation Xrotation Yrotation
					JOINT LeftFootFront
					{
						OFFSET 0 -0.07 0.085	
						CHANNELS 3 Zrotation Xrotation Yrotation
						End Site
						{
							OFFSET 0 -0.005 0.09
						}
					}
				}
				JOINT LeftHeel
				{
					OFFSET 0 -0.43 -0.02	
					CHANNELS 3 Zrotation Xrotation Yrotation
					End Site
					{
						OFFSET 0 -0.075 -0.05
					}
				}
			}
		}
	}
	JOINT RightHip
	{
		OFFSET 0 0 0	
		CHANNELS 3 Zrotation Xrotation Yrotation
		JOINT RightThigh
		{
			OFFSET -0.088 -0.06 0	
			CHANNELS 3 Zrotation Xrotation Yrotation
			JOINT RightLowerLeg
			{
				OFFSET 0 -0.39 0.02	
				CHANNELS 3 Zrotation Xrotation Yrotation
				JOINT RightFootTop
				{
					OFFSET 0 -0.43 -0.02	
					CHANNELS 3 Zrotation Xrotation Yrotation
					JOINT RightFootFront
					{
						OFFSET 0 -0.07 0.085	
						CHANNELS 3 Zrotation Xrotation Yrotation
						End Site
						{
							OFFSET 0 -0.005 0.09
						}
					}
				}
				JOINT RightHeel
				{
					OFFSET 0 -0.43 -0.02	
					CHANNELS 3 Zrotation Xrotation Yrotation
					End Site
					{
						OFFSET 0 -0.075 -0.05
					}
				}
			}
		}
	}
}
MOTION
Frames: 17
Frame Time: 0.05
0 0.955 0 -0 0 -0 3.2022 0.85494 9.063 -0.34734 -1.9079 2.6272 -0.34734 -1.9079 2.6272 -0.29763 -1.6016 2.2075 -0 0 -0 1.5426 1.1559 14.043 25.145 30.99 -3.8863 14.797 -52.78 -64.272 -0 0 -0 5.173 -0.34787 -22.389 -15.438 25.64 -2.8675 -25.487 -2.6518 24.7 -0.70657 1.346 7.7812 -0.70657 1.346 7.7812 -0 0 -0 -0 0 -0 -0 0 -0 -0 0 -0 -0 0 -0 -0 0 -0 -0 0 -0 -0 0 -0 -0 0 -0 -0 0 -0 -0 0 -0 -0 0 -0 
0 0.955 0 -0 0 -0 3.1509 0.85229 9.0524 -0.36092 -1.9079 2.609 -0.36092 -1.9079 2.609 -0.309 -1.6016 2.1922 -0 0 -0 1.5761 1.0766 14.041 25.063 31.005 -3.8559 14.563 -52.699 -64.634 -0 0 -0 5.1793 -0.41031 -22.248 -15.477 25.657 -2.9271 -25.545 -2.6216 24.683 -0.67903 1.3816 7.8242 -0.67903 1.3816 7.8242 -0 0 -0 -0 0 -0 -0 0 -0 -0 0 -0 -0 0 -0 -0 0 -0 -0 0 -0 -0 0 -0 -0 0 -0 -0 0 -0 -0 0 -0 -0 0 -0 
0 0.955 0 -0 0 -0 3.0885 0.79679 9.0614 -0.36134 -1.8825 2.5965 -0.36134 -1.8825 2.5965 -0.30925 -1.5802 2.1817 -0 0 -0 1.5768 0.93648 14.052 25.015 31.022 -3.8869 14.51 -52.625 -64.732 -0 0 -0 5.1566 -0.50131 -22.138 -15.448 25.662 -2.9926 -25.616 -2.6064 24.612 -0.66655 1.3906 7.8527 -0.66655 1.3906 7.8527 -0 0 -0 -0 0 -0 -0 0 -0 -0 0 -0 -0 0 -0 -0 0 -0 -0 0 -0 -0 0 -0 -0 0 -0 -0 0 -0 -0 0 -0 -0 0 -0 
0 0.955 0 -0 0 -0 3.0245 0.68194 9.0638 -0.35439 -1.8634 2.5882 -0.35439 -1.8634 2.5882 -0.30333 -1.5642 2.1747 -0 0 -0 1.5469 0.85816 14.104 24.937 30.976 -3.8563 14.529 -52.574 -64.806 -0 0 -0 5.1277 -0.52657 -22.078 -15.398 25.659 -2.9865 -25.666 -2.6166 24.589 -0.67004 1.4132 7.8849 -0.67004 1.4132 7.8849 -0 0 -0 -0 0 -0 -0 0 -0 -0 0 -0 -0 0 -0 -0 0 -0 -0 0 -0 -0 0 -0 -0 0 -0 -0 0 -0 -0 0 -0 -0 0 -0 
0 0.955 0 -0 0 -0 2.9891 0.59064 9.0987 -0.37842 -1.8418 2.5689 -0.37842 -1.8418 2.5689 -0.32341 -1.546 2.1586 -0 0 -0 1.5538 0.74537 14.216 25.034 31.027 -3.9153 14.587 -52.808 -64.678 -0 0 -0 5.1816 -0.57161 -22.009 -15.392 25.657 -2.9445 -25.684 -2.5986 24.604 -0.69497 1.4038 7.9343 -0.69497 1.4038 7.9343 -0 0 -0 -0 0 -0 -0 0 -0 -0 0 -0 -0 0 -0 -0 0 -0 -0 0 -0 -0 0 -0 -0 0 -0 -0 0 -0 -0 0 -0 -0 0 -0 
0 0.955 0 -0 0 -0 2.9517 0.50613 9.1329 -0.40738 -1.8382 2.5679 -0.40738 -1.8382 2.5679 -0.34772 -1.5429 2.1578 -0 0 -0 1.5732 0.67953 14.343 25.184 31.084 -4.0493 14.792 -52.981 -64.39 -0 0 -0 5.2884 -0.58203 -21.973 -15.404 25.65 -2.9323 -25.652 -2.5231 24.691 -0.73552 1.3918 7.9703 -0.73552 1.3918 7.9703 -0 0 -0 -0 0 -0 -0 0 -0 -0 0 -0 -0 0 -0 -0 0 -0 -0 0 -0 -0 0 -0 -0 0 -0 -0 0 -0 -0 0 -0 -0 0 -0 
0 0.955 0 -0 0 -0 2.9096 0.40412 9.1722 -0.42646 -1.8425 2.5782 -0.42646 -1.8425 2.5782 -0.36379 -1.5464 2.1664 -0 0 -0 1.5677 0.66852 14.463 25.309 31.119 -4.1676 14.839 -53.125 -64.38 -0 0 -0 5.3723 -0.57138 -21.998 -15.445 25.634 -2.9004 -25.572 -2.4701 24.799 -0.75687 1.386 7.9751 -0.75687 1.386 7.9751 -0 0 -0 -0 0 -0 -0 0 -0 -0 0 -0 -0 0 -0 -0 0 -0 -0 0 -0 -0 0 -0 -0 0 -0 -0 0 -0 -0 0 -0 -0 0 -0 
0 0.955 0 -0 0 -0 2.8792 0.31353 9.2253 -0.47648 -1.9234 2.6102 -0.47648 -1.9234 2.6102 -0.40612 -1.6142 2.1935 -0 0 -0 1.6733 0.85414 14.48 25.401 31.13 -4.2587 14.696 -53.12 -64.506 -0 0 -0 5.5388 -0.3747 -22.118 -15.509 25.614 -2.8766 -25.506 -2.3839 24.892 -0.66695 1.4617 7.9217 -0.66695 1.4617 7.9217 -0 0 -0 -0 0 -0 -0 0 -0 -0 0 -0 -0 0 -0 -0 0 -0 -0 0 -0 -0 0 -0 -0 0 -0 -0 0 -0 -0 0 -0 -0 0 -0 
0 0.955 0 -0 0 -0 2.8476 0.16527 9.2795 -0.47639 -1.9134 2.6282 -0.47639 -1.9134 2.6282 -0.40605 -1.6058 2.2086 -0 0 -0 1.6397 0.74687 14.553 25.539 31.184 -4.4036 14.415 -52.966 -64.813 -0 0 -0 5.5503 -0.3718 -22.159 -15.552 25.597 -2.8653 -25.502 -2.3232 24.96 -0.63247 1.4336 7.8705 -0.63247 1.4336 7.8705 -0 0 -0 -0 0 -0 -0 0 -0 -0 0 -0 -0 0 -0 -0 0 -0 -0 0 -0 -0 0 -0 -0 0 -0 -0 0 -0 -0 0 -0 -0 0 -0 
0 0.955 0 -0 0 -0 2.8389 0.011153 9.2962 -0.48046 -1.8825 2.6527 -0.48046 -1.8825 2.6527 -0.40943 -1.5799 2.2292 -0 0 -0 1.6728 0.68175 14.483 25.492 31.209 -4.3565 14.104 -52.769 -65.158 -0 0 -0 5.5507 -0.43508 -22.152 -15.572 25.596 -2.8617 -25.522 -2.2971 24.95 -0.60519 1.3861 7.822 -0.60519 1.3861 7.822 -0 0 -0 -0 0 -0 -0 0 -0 -0 0 -0 -0 0 -0 -0 0 -0 -0 0 -0 -0 0 -0 -0 0 -0 -0 0 -0 -0 0 -0 -0 0 -0 
0 0.955 0 -0 0 -0 2.8447 -0.12992 9.2834 -0.47025 -1.8425 2.6724 -0.47025 -1.8425 2.6724 -0.40077 -1.5462 2.2457 -0 0 -0 1.6679 0.61579 14.395 25.413 31.214 -4.2503 13.841 -52.61 -65.444 -0 0 -0 5.4997 -0.54932 -22.089 -15.578 25.623 -2.8649 -25.459 -2.4683 24.903 -0.63384 1.3319 7.7953 -0.63384 1.3319 7.7953 -0 0 -0 -0 0 -0 -0 0 -0 -0 0 -0 -0 0 -0 -0 0 -0 -0 0 -0 -0 0 -0 -0 0 -0 -0 0 -0 -0 0 -0 -0 0 -0 
0 0.955 0 -0 0 -0 2.8456 -0.26356 9.2824 -0.47217 -1.8495 2.6738 -0.47217 -1.8495 2.6738 -0.40241 -1.5521 2.2469 -0 0 -0 1.714 0.70786 14.291 25.32 31.187 -4.1076 13.841 -52.523 -65.494 -0 0 -0 5.5176 -0.55737 -22.026 -15.569 25.667 -2.8695 -25.431 -2.457 24.895 -0.67338 1.3269 7.7874 -0.67338 1.3269 7.7874 -0 0 -0 -0 0 -0 -0 0 -0 -0 0 -0 -0 0 -0 -0 0 -0 -0 0 -0 -0 0 -0 -0 0 -0 -0 0 -0 -0 0 -0 -0 0 -0 
0 0.955 0 -0 0 -0 2.8723 -0.35837 9.2916 -0.46291 -1.8453 2.6514 -0.46291 -1.8453 2.6514 -0.39457 -1.5486 2.2281 -0 0 -0 1.6711 0.75207 14.248 25.282 31.124 -4.0166 14.023 -52.465 -65.344 -0 0 -0 5.4926 -0.60599 -21.947 -15.593 25.719 -2.8409 -25.459 -2.4158 24.901 -0.73632 1.2724 7.8116 -0.73632 1.2724 7.8116 -0 0 -0 -0 0 -0 -0 0 -0 -0 0 -0 -0 0 -0 -0 0 -0 -0 0 -0 -0 0 -0 -0 0 -0 -0 0 -0 -0 0 -0 -0 0 -0 
0 0.955 0 -0 0 -0 2.9092 -0.51139 9.2848 -0.44569 -1.7844 2.6345 -0.44569 -1.7844 2.6345 -0.37988 -1.4976 2.2138 -0 0 -0 1.5962 0.7082 14.214 25.245 31.043 -3.9766 14.2 -52.396 -65.242 -0 0 -0 5.4522 -0.70994 -21.871 -15.66 25.789 -2.7957 -25.416 -2.4045 24.874 -0.77039 1.1628 7.8218 -0.77039 1.1628 7.8218 -0 0 -0 -0 0 -0 -0 0 -0 -0 0 -0 -0 0 -0 -0 0 -0 -0 0 -0 -0 0 -0 -0 0 -0 -0 0 -0 -0 0 -0 -0 0 -0 
0 0.955 0 -0 0 -0 2.9578 -0.57842 9.2364 -0.44559 -1.7701 2.6279 -0.44559 -1.7701 2.6279 -0.37974 -1.4855 2.2082 -0 0 -0 1.5756 0.75675 14.142 25.152 30.959 -3.9207 14.424 -52.367 -65.052 -0 0 -0 5.4489 -0.73658 -21.781 -15.684 25.857 -2.8117 -25.407 -2.4273 24.828 -0.76444 1.0843 7.8152 -0.76444 1.0843 7.8152 -0 0 -0 -0 0 -0 -0 0 -0 -0 0 -0 -0 0 -0 -0 0 -0 -0 0 -0 -0 0 -0 -0 0 -0 -0 0 -0 -0 0 -0 -0 0 -0 
0 0.955 0 -0 0 -0 3.0147 -0.62513 9.2024 -0.44515 -1.753 2.6049 -0.44515 -1.753 2.6049 -0.37927 -1.4712 2.1889 -0 0 -0 1.5683 0.81512 14.066 25.02 30.878 -3.8348 14.463 -52.355 -65.004 -0 0 -0 5.4149 -0.77895 -21.724 -15.694 25.905 -2.7941 -25.43 -2.4696 24.76 -0.76088 1.0283 7.8174 -0.76088 1.0283 7.8174 -0 0 -0 -0 0 -0 -0 0 -0 -0 0 -0 -0 0 -0 -0 0 -0 -0 0 -0 -0 0 -0 -0 0 -0 -0 0 -0 -0 0 -0 -0 0 -0 
0 0.955 0 -0 0 -0 3.0578 -0.68796 9.1666 -0.44066 -1.7365 2.5704 -0.44066 -1.7365 2.5704 -0.37538 -1.4574 2.1599 -0 0 -0 1.5783 0.89253 14.03 24.969 30.79 -3.8114 14.341 -52.367 -65.048 -0 0 -0 5.3767 -0.78925 -21.691 -15.738 25.939 -2.7191 -25.421 -2.4927 24.702 -0.72331 1.0179 7.841 -0.72331 1.0179 7.841 -0 0 -0 -0 0 -0 -0 0 -0 -0 0 -0 -0 0 -0 -0 0 -0 -0 0 -0 -0 0 -0 -0 0 -0 -0 0 -0 -0 0 -0 -0 0 -0 
